<svg width="164" height="164" viewBox="0 0 164 164" fill="none" xmlns="http://www.w3.org/2000/svg">
<circle cx="82" cy="82" r="82" fill="url(#paint0_linear_3_24)"/>
<circle cx="82" cy="82" r="68" fill="#C4C4C4"/>
<circle cx="82" cy="82" r="68" fill="white" fill-opacity="0.2"/>
<path d="M48.4219 90.2109C48.4219 89.5078 48.3125 88.8828 48.0938 88.3359C47.8906 87.7891 47.5234 87.2891 46.9922 86.8359C46.4609 86.3828 45.7109 85.9453 44.7422 85.5234C43.7891 85.0859 42.5703 84.6406 41.0859 84.1875C39.4609 83.6875 37.9609 83.1328 36.5859 82.5234C35.2266 81.8984 34.0391 81.1797 33.0234 80.3672C32.0078 79.5391 31.2188 78.5938 30.6562 77.5312C30.0938 76.4531 29.8125 75.2109 29.8125 73.8047C29.8125 72.4141 30.1016 71.1484 30.6797 70.0078C31.2734 68.8672 32.1094 67.8828 33.1875 67.0547C34.2812 66.2109 35.5703 65.5625 37.0547 65.1094C38.5391 64.6406 40.1797 64.4062 41.9766 64.4062C44.5078 64.4062 46.6875 64.875 48.5156 65.8125C50.3594 66.75 51.7734 68.0078 52.7578 69.5859C53.7578 71.1641 54.2578 72.9062 54.2578 74.8125H48.4219C48.4219 73.6875 48.1797 72.6953 47.6953 71.8359C47.2266 70.9609 46.5078 70.2734 45.5391 69.7734C44.5859 69.2734 43.375 69.0234 41.9062 69.0234C40.5156 69.0234 39.3594 69.2344 38.4375 69.6562C37.5156 70.0781 36.8281 70.6484 36.375 71.3672C35.9219 72.0859 35.6953 72.8984 35.6953 73.8047C35.6953 74.4453 35.8438 75.0312 36.1406 75.5625C36.4375 76.0781 36.8906 76.5625 37.5 77.0156C38.1094 77.4531 38.875 77.8672 39.7969 78.2578C40.7188 78.6484 41.8047 79.0234 43.0547 79.3828C44.9453 79.9453 46.5938 80.5703 48 81.2578C49.4062 81.9297 50.5781 82.6953 51.5156 83.5547C52.4531 84.4141 53.1562 85.3906 53.625 86.4844C54.0938 87.5625 54.3281 88.7891 54.3281 90.1641C54.3281 91.6016 54.0391 92.8984 53.4609 94.0547C52.8828 95.1953 52.0547 96.1719 50.9766 96.9844C49.9141 97.7812 48.6328 98.3984 47.1328 98.8359C45.6484 99.2578 43.9922 99.4688 42.1641 99.4688C40.5234 99.4688 38.9062 99.25 37.3125 98.8125C35.7344 98.375 34.2969 97.7109 33 96.8203C31.7031 95.9141 30.6719 94.7891 29.9062 93.4453C29.1406 92.0859 28.7578 90.5 28.7578 88.6875H34.6406C34.6406 89.7969 34.8281 90.7422 35.2031 91.5234C35.5938 92.3047 36.1328 92.9453 36.8203 93.4453C37.5078 93.9297 38.3047 94.2891 39.2109 94.5234C40.1328 94.7578 41.1172 94.875 42.1641 94.875C43.5391 94.875 44.6875 94.6797 45.6094 94.2891C46.5469 93.8984 47.25 93.3516 47.7188 92.6484C48.1875 91.9453 48.4219 91.1328 48.4219 90.2109ZM74.2266 93.0234V73.6406H79.8984V99H74.5547L74.2266 93.0234ZM75.0234 87.75L76.9219 87.7031C76.9219 89.4062 76.7344 90.9766 76.3594 92.4141C75.9844 93.8359 75.4062 95.0781 74.625 96.1406C73.8438 97.1875 72.8438 98.0078 71.625 98.6016C70.4062 99.1797 68.9453 99.4688 67.2422 99.4688C66.0078 99.4688 64.875 99.2891 63.8438 98.9297C62.8125 98.5703 61.9219 98.0156 61.1719 97.2656C60.4375 96.5156 59.8672 95.5391 59.4609 94.3359C59.0547 93.1328 58.8516 91.6953 58.8516 90.0234V73.6406H64.5V90.0703C64.5 90.9922 64.6094 91.7656 64.8281 92.3906C65.0469 93 65.3438 93.4922 65.7188 93.8672C66.0938 94.2422 66.5312 94.5078 67.0312 94.6641C67.5312 94.8203 68.0625 94.8984 68.625 94.8984C70.2344 94.8984 71.5 94.5859 72.4219 93.9609C73.3594 93.3203 74.0234 92.4609 74.4141 91.3828C74.8203 90.3047 75.0234 89.0938 75.0234 87.75ZM91.2891 79.0547V99H85.6406V73.6406H90.9609L91.2891 79.0547ZM90.2812 85.3828L88.4531 85.3594C88.4688 83.5625 88.7188 81.9141 89.2031 80.4141C89.7031 78.9141 90.3906 77.625 91.2656 76.5469C92.1562 75.4688 93.2188 74.6406 94.4531 74.0625C95.6875 73.4688 97.0625 73.1719 98.5781 73.1719C99.7969 73.1719 100.898 73.3438 101.883 73.6875C102.883 74.0156 103.734 74.5547 104.438 75.3047C105.156 76.0547 105.703 77.0312 106.078 78.2344C106.453 79.4219 106.641 80.8828 106.641 82.6172V99H100.969V82.5938C100.969 81.375 100.789 80.4141 100.43 79.7109C100.086 78.9922 99.5781 78.4844 98.9062 78.1875C98.25 77.875 97.4297 77.7188 96.4453 77.7188C95.4766 77.7188 94.6094 77.9219 93.8438 78.3281C93.0781 78.7344 92.4297 79.2891 91.8984 79.9922C91.3828 80.6953 90.9844 81.5078 90.7031 82.4297C90.4219 83.3516 90.2812 84.3359 90.2812 85.3828ZM118.453 73.6406V99H112.781V73.6406H118.453ZM112.406 66.9844C112.406 66.125 112.688 65.4141 113.25 64.8516C113.828 64.2734 114.625 63.9844 115.641 63.9844C116.641 63.9844 117.43 64.2734 118.008 64.8516C118.586 65.4141 118.875 66.125 118.875 66.9844C118.875 67.8281 118.586 68.5312 118.008 69.0938C117.43 69.6562 116.641 69.9375 115.641 69.9375C114.625 69.9375 113.828 69.6562 113.25 69.0938C112.688 68.5312 112.406 67.8281 112.406 66.9844ZM130.688 63V99H125.016V63H130.688Z" fill="black"/>
<defs>
<linearGradient id="paint0_linear_3_24" x1="82" y1="-1.31853e-06" x2="126.243" y2="164" gradientUnits="userSpaceOnUse">
<stop stop-color="#36378D"/>
<stop offset="1" stop-color="#A8DCD9" stop-opacity="0"/>
</linearGradient>
</defs>
</svg>
